<svg xmlns="http://www.w3.org/2000/svg" viewBox="0 0 357.2 357.2">
  <path fill="none" d="M0 0h357.2v357.2H0z"/>
  <path fill="#0086B1" d="M118.4 119.2h119.5v119.5H118.4z"/>
  <g fill="#FFF">
    <path d="M154.7 189.1v0M206.7 193c-1 .6-3.3 1.7-5.7 1.7-2.4 0-5.5-2-5.5-6 0-4.1 1.7-8.9 16.5-10.9v5.4c0-.1.3 5.9-5.3 9.8m11.7-3.4v-18.7c0-2.6-1.6-10.9-13.3-10.9-10.6 0-15.1 6.5-15.1 10.1 0 2.1 1.3 4.5 4.5 4.5s4-2.3 4-3.8-1-2.7-1-2.7c-3.7-3.9 4.6-5.3 6.3-5.2 8.6.5 8.2 6.9 8.2 6.9v5.4c-23.7 2.7-23.7 12.5-23.7 14.1 0 4.1 2.6 5.8 2.6 5.8-1.7 0-3.3 0-4.5-1.2-1.2-1.2-1.1-4.9-1.1-4.9v-16.7c0-1.2-.3-11.8-11.2-11.8-9.1 0-12.9 7.6-12.9 7.6v-6.9c0-.3-.5-.5-.5-.5h-10.1v1.6c1.2 0 2.1.5 2.7 1 1.7 1.7 1.6 4.5 1.6 4.5v21.4c0-1.1.2 3.4-1.1 4.7-1.3 1.3-3.2 1.3-4.4 1.3-1.2 0-2.8.2-4.2-1.2-1.4-1.4-1.2-7.2-1.2-7.2V161c0-.3-.4-.5-.4-.5H133v1.6c4.7 0 4.4 6.1 4.4 6.1V189c0 2-.1 6.1-4.4 6.1v1.5h32.2v-1.4c-.5 0-1.7 0-2.6-.7-1.9-1.5-1.7-5.7-1.7-5.7V177c0-2.8 1.6-12.2 10-12.2 8.3 0 8 10 8 10v15c0 .4-.1 3.4-1.2 4.5s-3.1 1-3.1 1v1.5h18.6c.4 0 1.4 1.1 6.4 1.1 8.1 0 12.6-6.3 12.6-6.3 0 .9 1.4 5.2 6.1 5.2h4.4v-1.5c-4.6-.2-4.3-4.9-4.3-5.7M144.6 151.7c0 2.3-1.8 4.1-4.1 4.1s-4.1-1.8-4.1-4.1 1.8-4.1 4.1-4.1 4.1 1.9 4.1 4.1M231.2 268.4v-4.3h5v-1.5h-5v-4.2h6.3v-1.6h-8.2V270h8.2v-1.6h-6.3zm-13-3.5c-.2-.3-.4-.5-.6-.6.5-.1.9-.3 1.3-.5s.7-.5 1-.8c.3-.3.5-.7.6-1.1.1-.4.2-.8.2-1.3 0-.6-.1-1.1-.3-1.5s-.5-.8-.9-1.2c-.4-.3-.9-.6-1.5-.7-.6-.2-1.4-.3-2.2-.3H212V270h2v-5.4h1.3c.2 0 .4 0 .6.1l.3.3 3.3 4.6c.2.3.4.4.8.4h1.8l-3.9-5.1zm-4.3-1.8v-4.9h1.9c1 0 1.8.2 2.3.6.5.4.8 1 .8 1.7 0 .4-.1.7-.2 1-.1.3-.3.6-.6.8s-.6.4-1 .5c-.4.1-.8.2-1.3.2h-1.9zm-10.7-6.4h-2V270h2v-13.3zm-12.4 8.8a4.17 4.17 0 0 1-2.3 2.6c-.6.2-1.2.3-1.9.3s-1.3-.1-1.9-.3a4.17 4.17 0 0 1-2.3-2.6c-.2-.6-.3-1.3-.3-2.1s.1-1.5.3-2.1a4.17 4.17 0 0 1 2.3-2.6c.6-.2 1.2-.4 1.9-.4s1.3.1 1.9.4a4.17 4.17 0 0 1 2.3 2.6c.2.6.3 1.3.3 2.1s-.1 1.5-.3 2.1m1.9-4.8c-.3-.8-.8-1.5-1.3-2.1-.6-.6-1.3-1.1-2.1-1.4a7.63 7.63 0 0 0-5.4 0 5.96 5.96 0 0 0-3.4 3.5 7.63 7.63 0 0 0 0 5.4c.3.8.8 1.5 1.3 2.1.6.6 1.3 1.1 2.1 1.4a7.63 7.63 0 0 0 5.4 0 5.96 5.96 0 0 0 3.4-3.5 7.63 7.63 0 0 0 0-5.4m-22.2-4c-.2 0-.3 0-.4.1-.1 0-.2.1-.3.3l-4.4 7.9c-.2.3-.3.7-.5 1.1-.1-.2-.1-.4-.2-.5-.1-.2-.2-.3-.2-.5l-4.4-8c-.1-.2-.2-.2-.3-.3-.1 0-.2-.1-.4-.1H158V270h1.7v-9.4c0-.3 0-.6-.1-1l4.5 8.1c.1.3.4.5.7.5h.3c.3 0 .6-.2.7-.5l4.4-8.1V270h1.7v-13.3h-1.4zm-22.9-3.8h-.5c-.1 0-.1.1-.2.1s-.1.1-.2.2l-2.1 2.5h1.6s.2-.1.3-.2l3-2.6h-1.9zm-3.8 15.5v-4.3h5v-1.5h-5v-4.2h6.3v-1.6h-8.2V270h8.2v-1.6h-6.3zm-12.3-11.7c-.2 0-.3 0-.4.1-.1 0-.2.1-.3.3l-4.4 7.9c-.2.3-.3.7-.5 1.1-.1-.2-.1-.4-.2-.5-.1-.2-.2-.3-.2-.5l-4.4-8c-.1-.2-.2-.2-.3-.3-.1 0-.2-.1-.4-.1H119V270h1.7v-9.4c0-.3 0-.6-.1-1l4.5 8.1c.1.3.4.5.7.5h.3c.3 0 .6-.2.7-.5l4.4-8.1V270h1.7v-13.3h-1.4zM308.3 287.9v-4.3h5V282h-5v-4.2h6.3v-1.6h-8.2v13.3h8.2v-1.6h-6.3zm-12.4-15.6h-.5c-.1 0-.1.1-.2.1s-.1.1-.2.2l-2.1 2.5h1.6c.1 0 .2-.1.3-.2l3-2.6h-1.9zm-3.8 15.6v-4.3h5V282h-5v-4.2h6.3v-1.6h-8.2v13.3h8.2v-1.6h-6.3zm-9.4-11.7h-10.4v1.6h4.2v11.6h2v-11.6h4.2v-1.6zm-19.6 0v10l-7.5-9.7-.3-.3c-.1 0-.2-.1-.4-.1h-1v13.3h1.7v-9.1-.5-.5l7.5 9.7.3.3c.1.1.2.1.4.1h1v-13.3h-1.7zm-23.4 11.7v-4.3h5V282h-5v-4.2h6.3v-1.6h-8.2v13.3h8.2v-1.6h-6.3zm-12.3-11.7h-.4c-.1 0-.2.1-.3.3l-4.4 7.9c-.2.3-.3.7-.5 1.1-.1-.2-.1-.4-.2-.5-.1-.2-.2-.3-.2-.5l-4.4-8c-.1-.2-.2-.2-.3-.3h-1.9v13.3h1.7V280c0-.3 0-.6-.1-1l4.5 8.1c.1.3.4.5.7.5h.3c.3 0 .6-.2.7-.5l4.4-8.1v10.5h1.7v-13.3h-1.3zm-24.9 6.8v1.1c0 .1 0 .2.1.3.1.1.2.1.3.1h2v2.8c-.2.1-.4.2-.7.3-.2.1-.4.2-.7.2-.2.1-.5.1-.7.1-.3 0-.5.1-.8.1a5.37 5.37 0 0 1-3.7-1.4c-.4-.4-.8-1-1-1.6a6.65 6.65 0 0 1-.1-4.3c.2-.6.5-1.2 1-1.6.4-.4.9-.8 1.5-1a5.92 5.92 0 0 1 3.3-.3c.4.1.7.2.9.3.3.1.5.2.7.3.2.1.4.2.5.3.2.1.3.1.5.1.1 0 .3-.1.3-.3l.6-.9a5.5 5.5 0 0 0-2-1.2c-.4-.1-.8-.3-1.3-.3-.5-.1-.9-.1-1.5-.1-1 0-2 .2-2.8.5-.8.3-1.6.8-2.2 1.4-.6.6-1 1.3-1.4 2.1a7.63 7.63 0 0 0 0 5.5c.3.8.8 1.5 1.4 2.1.6.6 1.3 1.1 2.2 1.4.9.3 1.8.5 2.9.5.9 0 1.7-.1 2.5-.4.8-.2 1.5-.6 2.1-1.1v-5h-3.9zm-22.1 4.6c-.4-.2-.8-.4-1.1-.8-.3-.3-.5-.7-.7-1.2-.2-.4-.2-.9-.2-1.5v-8h-2v8c0 .8.1 1.5.4 2.2.2.7.6 1.2 1.1 1.7.5.5 1 .9 1.7 1.1.7.3 1.4.4 2.2.4.8 0 1.6-.1 2.2-.4a5 5 0 0 0 1.7-1.1c.5-.5.8-1.1 1.1-1.7.2-.7.4-1.4.4-2.2v-8h-2v8c0 .5-.1 1-.2 1.5-.2.4-.4.8-.7 1.2-.3.3-.6.6-1.1.8-.4.2-.9.3-1.4.3-.5 0-.9-.1-1.4-.3m-15.9-11.4h-2l-5.3 13.3h1.5c.2 0 .3 0 .4-.1.1-.1.2-.2.2-.3l1.2-3.1h5.9l1.2 3.1c.1.1.1.2.2.3.1.1.3.1.4.1h1.5l-5.2-13.3zm-3.4 8.3l2-5.1c.1-.2.1-.4.2-.6s.1-.5.2-.7c.1.5.3 1 .4 1.3l2 5.1h-4.8z"/>
  </g>
</svg>