<svg xmlns="http://www.w3.org/2000/svg" viewBox="0 0 566.9 566.9">
  <path fill="none" d="M-168.9-168.9h904.8v904.8"/>
  <path fill="#0087B1" d="M0 0h566.9v566.9H0z"/>
  <path fill="#FFF" d="M477.3 352.7c-3.7-7.3-3.7-19.2-3.7-19.2V246s0-49.9-61.1-49.9c-21.5 0-38.9 4.9-52.1 14.6-13.2 9.7-19.9 20.5-19.9 32.2 0 6.3 2 11.5 6 15.5 4 4.1 8.9 6.1 14.9 6.1 5.6 0 10.1-1.7 13.5-5.1 3.4-3.4 5.2-7.8 5.2-13.1 0-3.7-1.7-7.9-5.2-12.6-2.8-3.8-4.3-6.6-4.3-8.4 0-3.1 2.7-6.2 8-9.4 7.5-4.3 16.4-6.4 26.7-6.4 11.1 0 20.4 3.2 27.6 9.6 7.2 6.4 10.9 14.1 10.9 23.1v25.3c-33.8 3.8-60.9 11.4-81.3 22.9-20.3 11.5-30.5 25.9-30.5 43.2 0 8 2.2 15 6.5 21 0 0 2.2 2.9 6.1 6.3h-6.8c-8.9-.4-13.9-2.6-16.8-8.2-3.7-7.3-3.7-19.2-3.7-19.2v-76.9c0-11.6-2.3-22.1-6.8-31.5-4.5-9.4-10.5-16.2-18-20.6-7.5-4.3-16.8-6.5-27.8-6.5-12.8 0-24.3 3-34.5 9.1-10.1 6.1-19 15.1-26.4 27.2v-32.8c0-1.4-1.2-2.6-2.6-2.6H154v7c8.9.4 13.9 4 16.7 9.6 3.7 7.3 3.7 17.8 3.7 17.8v100.1s0 11.8-3.7 19.2c-2.8 5.7-7.8 7.8-16.7 8.2h-10.4c-8.9-.4-13.9-2.6-16.8-8.2-3.7-7.3-3.7-19.2-3.7-19.2V201.6c0-1.4-1.2-2.6-2.6-2.6H72.8v7c8.9.4 13.9 4 16.8 9.6 3.7 7.3 3.7 17.8 3.7 17.8v100.1s0 11.8-3.7 19.2c-2.8 5.7-7.9 7.8-16.8 8.2v7h151.6v-7c-8.9-.4-13.9-2.6-16.7-8.2-3.7-7.3-3.7-19.2-3.7-19.2V276c0-17.3 4.5-31.4 13.4-42.2 9-10.8 20.2-16.2 33.6-16.2 13.5 0 23.6 5.3 30.3 16 4.7 7.5 7.1 19 7.1 34.6v65.3s0 11.8-3.7 19.2c-2.8 5.7-7.9 7.8-16.8 8.2v7h87.6c7.8 3.3 17.4 5 28.9 5 12 0 22.3-2 30.8-6s18.5-11.9 29.7-23.8c0 0 2.8 24.8 30.7 24.8H494v-7c-8.8-.4-13.8-2.6-16.7-8.2zm-33.4-49.6c0 16-5.1 29.4-15.4 40-10.3 10.6-22.4 15.9-36.4 15.9-7.8 0-14.2-2.6-19.1-7.8-4.9-5.2-7.3-12.3-7.3-21.5 0-13 4.7-23.1 14.1-30.2 12.6-9.4 33.9-16.2 64.1-20.3v23.9zM126.4 157.4c.3 10.1-7 18.1-18.8 18.1-10.4 0-17.8-8-17.8-18.1 0-10.4 7.7-18.4 18.4-18.4 11.2 0 18.2 8 18.2 18.4z"/>
</svg>